<mxfile host="app.diagrams.net" modified="2023-07-13T14:16:16.460Z" agent="Mozilla/5.0 (Windows NT 10.0; Win64; x64) AppleWebKit/537.36 (KHTML, like Gecko) Chrome/114.0.0.0 Safari/537.36" version="21.6.2" etag="eTa3AKu28FzVtQ60Ntmb" type="github">
  <diagram name="페이지-1" id="a28MBN3_P2VQPF30qmRz">
    <mxGraphModel>
      <root>
        <mxCell id="0" />
        <mxCell id="1" parent="0" />
      </root>
    </mxGraphModel>
  </diagram>
</mxfile>
